<?xml version="1.0" encoding="iso-8859-1"?>
<!-- Generator: Adobe Illustrator 19.0.0, SVG Export Plug-In . SVG Version: 6.00 Build 0)  -->
<svg version="1.1" id="Layer_1" xmlns="http://www.w3.org/2000/svg" xmlns:xlink="http://www.w3.org/1999/xlink" x="0px" y="0px"
	 viewBox="0 0 512.001 512.001" style="enable-background:new 0 0 512.001 512.001;" xml:space="preserve">
<path style="fill:#F5BA3D;" d="M427.128,483.637c0.028-1.057-0.152-2.122-0.545-3.137l-0.095-0.243
	c-0.077-0.218-0.157-0.426-0.245-0.63l-162.71-419.28c-1.207-3.108-4.197-5.157-7.533-5.157c-3.334,0-6.326,2.048-7.533,5.157
	L85.758,479.628c-0.087,0.205-0.168,0.414-0.246,0.631l-0.094,0.242c-0.374,0.963-0.551,1.974-0.54,2.979
	c-0.005,0.13-0.008,0.26-0.008,0.389c0,10.145,13.06,13.942,18.638,15.564c8.626,2.508,20.81,4.74,36.212,6.634
	c31.113,3.827,72.409,5.934,116.281,5.934c43.871,0,85.167-2.107,116.28-5.934c33.862-4.165,54.85-9.331,54.85-22.198
	C427.131,483.791,427.13,483.715,427.128,483.637z"/>
<path style="fill:#EF9325;" d="M427.128,483.636c0.028-1.054-0.151-2.115-0.541-3.126l-0.097-0.25
	c-0.073-0.207-0.153-0.414-0.241-0.621L263.533,60.345c-1.207-3.108-4.198-5.157-7.533-5.157s-6.326,2.048-7.533,5.157
	L235.431,93.94L394.35,502.793c20.663-3.823,32.781-9.152,32.781-18.926C427.131,483.789,427.13,483.712,427.128,483.636z"/>
<g>
	<path style="fill:#F7434C;" d="M106.295,500.197c0.769,0.201,1.552,0.402,2.369,0.599c0.002,0,0.003,0.001,0.005,0.001
		c0.844,0.204,1.718,0.405,2.611,0.605c0.175,0.039,0.35,0.078,0.527,0.116c0.89,0.196,1.796,0.391,2.733,0.583
		c0.003,0.001,0.005,0.001,0.009,0.002c0.248,0.051,0.5,0.1,0.751,0.151c0.31,0.063,0.623,0.124,0.937,0.186
		c1.896,0.372,3.882,0.735,5.954,1.089c0.131,0.023,0.265,0.045,0.398,0.068c0.991,0.168,1.998,0.334,3.028,0.498
		c0.058,0.01,0.115,0.018,0.173,0.028c1.117,0.177,2.256,0.351,3.416,0.524c0.031,0.004,0.064,0.01,0.095,0.014
		c0.041,0.006,0.082,0.012,0.123,0.018c1.028,0.152,2.075,0.302,3.136,0.449c0.226,0.031,0.451,0.064,0.679,0.094
		c1.135,0.156,2.285,0.311,3.457,0.463c0.008,0.001,0.016,0.002,0.024,0.003c1.117,0.144,2.258,0.287,3.409,0.427
		c1.03,0.126,2.09,0.246,3.141,0.368c0.646,0.074,1.276,0.153,1.929,0.226c0.526,0.059,1.064,0.116,1.597,0.174
		c1.24,0.136,2.495,0.269,3.762,0.4c0.709,0.073,1.413,0.147,2.132,0.218c1.492,0.149,3.004,0.294,4.531,0.435
		c1.102,0.102,2.223,0.201,3.345,0.299c0.792,0.07,1.586,0.139,2.386,0.207c1.162,0.098,2.331,0.196,3.514,0.291
		c0.48,0.039,0.97,0.075,1.453,0.113c2.555,0.2,5.153,0.392,7.799,0.575c0.253,0.017,0.505,0.036,0.76,0.053
		c0.032,0.002,0.065,0.004,0.097,0.006c1.467,0.1,2.95,0.197,4.444,0.292c0.044,0.003,0.089,0.005,0.134,0.009
		c0.072,0.004,0.143,0.009,0.215,0.013c0.157,0.009,0.315,0.015,0.472,0.015c0.562,0,1.123-0.059,1.674-0.176
		c57.655-12.21,142.581-33.897,219.753-67.876l6.887-3.59l-15.87-40.894l-12.642-32.578l-7.906,3.847
		c-100.814,49.297-224.913,75.585-273.589,84.599l-4.349,0.611l-1.71,4.405l0,0l-7.798,20.092l-0.533,1.374
		c-0.087,0.205-0.168,0.415-0.246,0.632l-0.095,0.243c-0.374,0.964-0.551,1.974-0.54,2.979c-0.005,0.13-0.008,0.26-0.008,0.389
		c0,0.326,0.015,0.645,0.041,0.958c0.009,0.103,0.026,0.203,0.038,0.305c0.024,0.207,0.045,0.415,0.08,0.616
		c0.02,0.118,0.048,0.232,0.072,0.348c0.037,0.179,0.072,0.36,0.117,0.534c0.031,0.121,0.07,0.237,0.106,0.354
		c0.05,0.165,0.097,0.331,0.154,0.492c0.041,0.117,0.088,0.231,0.134,0.346c0.061,0.156,0.122,0.312,0.191,0.465
		c0.051,0.113,0.106,0.223,0.161,0.334c0.073,0.149,0.145,0.298,0.225,0.443c0.058,0.108,0.121,0.212,0.183,0.318
		c0.084,0.143,0.169,0.285,0.26,0.426c0.066,0.101,0.134,0.2,0.203,0.3c0.096,0.139,0.193,0.277,0.295,0.413
		c0.07,0.094,0.143,0.186,0.215,0.278c0.108,0.136,0.218,0.27,0.332,0.402c0.074,0.086,0.149,0.171,0.225,0.255
		c0.121,0.134,0.243,0.265,0.37,0.394c0.075,0.078,0.152,0.155,0.228,0.232c0.134,0.131,0.27,0.262,0.409,0.389
		c0.075,0.07,0.151,0.139,0.228,0.207c0.149,0.131,0.301,0.261,0.454,0.388c0.071,0.059,0.142,0.118,0.214,0.177
		c0.167,0.134,0.336,0.264,0.508,0.393c0.064,0.048,0.127,0.097,0.192,0.144c0.186,0.136,0.375,0.268,0.567,0.4
		c0.054,0.037,0.107,0.074,0.162,0.111c0.213,0.143,0.429,0.282,0.646,0.418c0.033,0.022,0.067,0.043,0.101,0.065
		c0.252,0.156,0.507,0.308,0.765,0.456c0.001,0,0.001,0.001,0.002,0.001c0.199,0.112,0.399,0.225,0.604,0.335
		c0.036,0.019,0.07,0.039,0.106,0.058c1.638,0.865,3.488,1.655,5.525,2.388c0.401,0.141,0.793,0.274,1.175,0.4
		c0.048,0.016,0.099,0.032,0.148,0.048c0.363,0.118,0.715,0.231,1.057,0.335c0.056,0.017,0.111,0.034,0.166,0.052
		c0.334,0.102,0.658,0.2,0.965,0.291c0.053,0.016,0.103,0.03,0.155,0.046c0.301,0.088,0.591,0.173,0.86,0.251
		c0.713,0.208,1.461,0.413,2.223,0.616C105.918,500.098,106.105,500.147,106.295,500.197z"/>
	<path style="fill:#F7434C;" d="M127.755,406.473c63.964-15.414,155.837-42.369,230.267-83.249l6.358-3.008l-2.714-6.993l0,0
		l-23.677-61.013l-2.641-6.805l-1.07-2.758l-7.115,5.02c-45.256,28.536-105.027,54.168-177.628,76.174l-3.607,0.736l-33.12,85.347
		C112.809,409.923,127.127,406.624,127.755,406.473z"/>
	<path style="fill:#F7434C;" d="M315.757,194.922l-11.724-30.214l-8.832-22.757l-3.389-8.734l-4.81-12.396l-2.868-7.389
		l-8.524,8.107c-17.948,15.869-40.353,31.239-66.594,45.681c-0.163,0.089-0.322,0.184-0.477,0.284l-2.132,1.224l-3.051,7.861l0,0
		l-26.293,67.754l-9.108,23.471l-1.266,3.262l15.619-4.914c0.314-0.081,0.625-0.173,0.931-0.293
		c51.64-20.188,94.594-42.69,127.668-66.881L315.757,194.922z"/>
	<path style="fill:#F7434C;" d="M300.81,55.19h-26.044l24.965-26.394c3.066-3.242,2.924-8.356-0.318-11.423
		c-3.244-3.068-8.357-2.924-11.423,0.318l-23.908,25.277V8.08c0-4.462-3.618-8.08-8.08-8.08c-4.462,0-8.08,3.618-8.08,8.08v34.889
		l-23.909-25.277c-3.066-3.243-8.18-3.385-11.422-0.318c-3.242,3.066-3.384,8.18-0.318,11.423l24.965,26.394h-26.044
		c-4.462,0-8.08,3.618-8.08,8.08s3.618,8.08,8.08,8.08h44.809h44.808c4.462,0,8.08-3.618,8.08-8.08S305.272,55.19,300.81,55.19z"/>
</g>
<g>
	<path style="fill:#DB2E37;" d="M295.202,141.951l-3.389-8.734l-4.81-12.396l-2.868-7.389l-8.524,8.107
		c-6.854,6.06-14.363,12.047-22.482,17.936l30.262,77.857c9.81-5.996,18.997-12.113,27.517-18.345l4.849-4.067l-11.724-30.214
		L295.202,141.951z"/>
	<path style="fill:#DB2E37;" d="M337.989,252.209l-2.641-6.805l-1.07-2.758l-7.115,5.02c-8.209,5.177-16.903,10.256-26.058,15.238
		l29.013,74.642c9.504-4.572,18.835-9.343,27.904-14.323l6.358-3.008l-2.714-6.993L337.989,252.209z"/>
	<path style="fill:#DB2E37;" d="M381.643,364.699l-7.906,3.847c-8.768,4.288-17.717,8.398-26.773,12.341l28.214,72.587
		c9.434-3.732,18.819-7.632,28.089-11.714l6.887-3.59l-15.87-40.894L381.643,364.699z"/>
</g>
<g>
</g>
<g>
</g>
<g>
</g>
<g>
</g>
<g>
</g>
<g>
</g>
<g>
</g>
<g>
</g>
<g>
</g>
<g>
</g>
<g>
</g>
<g>
</g>
<g>
</g>
<g>
</g>
<g>
</g>
</svg>
